<?xml version="1.0" encoding="utf-8"?>
<!-- Generator: Adobe Illustrator 16.0.0, SVG Export Plug-In . SVG Version: 6.00 Build 0)  -->
<!DOCTYPE svg PUBLIC "-//W3C//DTD SVG 1.1//EN" "http://www.w3.org/Graphics/SVG/1.1/DTD/svg11.dtd">
<svg version="1.1" id="Layer_1" xmlns="http://www.w3.org/2000/svg" xmlns:xlink="http://www.w3.org/1999/xlink" x="0px" y="0px"
	 width="512px" height="512px" viewBox="0 0 512 512" enable-background="new 0 0 512 512" xml:space="preserve">
<g>
	<path d="M480,96H32c-17.688,0-32,14.313-32,32v256c0,17.688,14.313,32,32,32h448c17.688,0,32-14.313,32-32V128
		C512,110.313,497.688,96,480,96z M480,384H32V256h448V384z M480,192H32v-64h448V192z"/>
	<rect x="64" y="288" width="96" height="64"/>
	<rect x="288" y="320" width="32" height="32"/>
	<rect x="352" y="320" width="32" height="32"/>
	<rect x="416" y="320" width="32" height="32"/>
</g>
</svg>
